<?xml version="1.0" standalone="no"?>
<!DOCTYPE svg PUBLIC "-//W3C//DTD SVG 20010904//EN"
 "http://www.w3.org/TR/2001/REC-SVG-20010904/DTD/svg10.dtd">
<svg version="1.0" xmlns="http://www.w3.org/2000/svg"
 width="1080.000000pt" height="987.000000pt" viewBox="0 0 1080.000000 987.000000"
 preserveAspectRatio="xMidYMid meet">
<metadata>
Created by potrace 1.15, written by Peter Selinger 2001-2017
</metadata>
<g transform="translate(0.000000,987.000000) scale(0.100000,-0.100000)"
fill="#000000" stroke="none">
<path d="M0 4935 l0 -4935 5396 0 5396 0 -6 1412 c-3 777 -6 1430 -5 1452 0
21 -10 54 -21 74 -13 22 -19 44 -15 59 3 13 1 23 -5 23 -6 0 -14 10 -19 22 -8
22 -90 52 -157 57 -12 1 -26 50 -17 63 2 5 13 3 24 -2 11 -6 17 -15 14 -21 -4
-5 -1 -9 4 -9 6 0 11 7 11 15 0 9 9 15 23 15 12 0 29 5 37 10 12 7 11 13 -9
34 -23 24 -26 25 -43 9 -17 -15 -20 -15 -38 5 -24 26 -28 51 -5 32 20 -16 38
-1 29 24 -5 13 -13 16 -35 11 -25 -6 -30 -3 -40 22 -7 15 -11 40 -10 55 1 14
-3 29 -8 33 -16 9 46 68 64 61 8 -3 17 -1 20 4 4 6 15 10 26 10 26 0 24 17 -3
26 l-23 8 25 6 c37 9 30 27 -20 52 -34 18 -46 31 -52 56 -5 17 -13 32 -17 32
-5 0 -29 18 -53 40 -23 22 -46 40 -50 40 -19 0 -6 37 18 51 25 15 25 16 8 34
-15 14 -19 34 -19 89 -1 67 -15 116 -34 116 -13 0 -20 -25 -14 -49 4 -15 1
-21 -11 -21 -8 0 -30 -9 -47 -19 l-31 -19 34 -7 c52 -12 107 -85 63 -85 -10 0
-14 -7 -12 -22 2 -13 2 -18 0 -13 -5 13 -68 56 -79 54 -5 -1 -28 -1 -51 0 -36
1 -43 4 -43 22 0 15 5 19 18 15 43 -12 82 -17 82 -11 0 4 -18 25 -40 47 -22
22 -40 49 -40 59 0 11 -6 19 -13 19 -16 0 -38 36 -32 53 3 7 -6 23 -20 35 -41
36 -28 75 17 51 39 -21 88 -29 88 -14 0 8 -9 16 -19 20 -11 3 -23 14 -26 25
-3 10 -13 21 -21 24 -10 4 -13 13 -9 27 4 13 1 25 -9 32 -8 7 -18 24 -21 38
-6 23 -3 27 20 33 20 5 25 11 20 26 -7 22 2 24 53 14 21 -4 29 -11 25 -20 -3
-8 0 -21 7 -29 16 -19 5 -49 -15 -41 -9 3 -15 0 -15 -9 0 -10 11 -15 33 -16
65 -3 79 -7 93 -28 19 -27 34 -27 64 1 16 15 25 18 28 10 2 -7 10 -12 18 -12
8 0 14 -5 14 -12 0 -6 3 -9 6 -6 12 13 -8 76 -27 81 -12 3 -17 11 -13 21 3 8
-4 31 -15 50 -21 33 -21 35 -4 45 13 7 22 6 33 -4 13 -11 18 -11 33 0 18 13
16 17 -23 69 -23 31 -46 56 -50 56 -15 0 -22 53 -9 61 18 10 29 2 29 -22 0
-13 13 -25 38 -36 20 -9 51 -22 67 -29 26 -12 32 -11 43 3 17 23 16 26 -18 45
-17 9 -35 29 -40 43 -5 14 -14 25 -20 25 -5 0 -10 10 -10 23 0 13 -5 28 -11
34 -7 7 -1 10 20 9 17 -1 31 -5 31 -9 0 -5 5 -5 10 -2 15 9 -28 65 -44 59 -15
-6 -48 34 -40 48 3 4 14 8 25 8 10 0 24 9 31 20 10 15 24 20 55 20 38 0 43 3
49 28 4 15 12 30 18 35 7 5 5 11 -7 18 -9 5 -26 19 -36 31 -12 13 -26 18 -38
14 -13 -4 -26 1 -38 14 -16 17 -17 25 -7 40 7 11 12 27 12 35 0 9 12 20 26 25
33 13 34 13 34 -8 0 -22 64 -55 91 -47 20 7 26 25 9 25 -17 0 -11 25 10 38 24
15 27 73 5 92 -26 21 -18 40 17 40 l31 0 -20 23 c-15 15 -20 30 -16 50 6 28
18 36 26 15 2 -7 8 -10 12 -6 4 4 9 1040 12 2302 l4 2296 -5396 0 -5395 0 0
-4935z m5866 4634 c28 -11 70 -36 93 -56 39 -33 42 -39 37 -72 -20 -121 -21
-113 23 -198 45 -87 50 -124 23 -151 -10 -10 -30 -54 -44 -98 -17 -49 -33 -80
-42 -82 -19 -4 -21 -49 -5 -86 14 -31 0 -52 -48 -72 -37 -16 -38 -18 -57 -152
-18 -121 -47 -194 -89 -224 -30 -21 -59 -24 -156 -15 -13 1 -25 -2 -27 -8 -7
-21 14 -35 65 -45 30 -5 60 -18 67 -28 20 -26 17 -77 -11 -166 -14 -45 -30
-101 -36 -125 -8 -31 -25 -59 -60 -95 -27 -27 -49 -53 -49 -57 0 -4 9 -9 19
-12 17 -4 19 -13 16 -103 -2 -55 -6 -107 -10 -117 -4 -10 -5 -31 -2 -47 4 -16
2 -32 -3 -35 -15 -9 -30 31 -30 80 0 33 -4 45 -12 43 -7 -3 -14 -14 -16 -26
-5 -31 -25 -42 -93 -52 -34 -5 -69 -16 -77 -24 -13 -12 -9 -17 27 -40 22 -15
41 -33 41 -40 0 -18 -66 -60 -80 -51 -13 8 -50 -22 -50 -40 0 -6 12 -18 26
-25 21 -12 29 -12 46 -1 29 18 35 4 14 -32 -50 -84 -50 -87 -31 -123 20 -37
23 -30 -37 -98 -12 -13 -18 -37 -18 -70 0 -28 -6 -77 -14 -109 -9 -37 -10 -60
-4 -63 6 -4 14 0 19 7 4 7 12 10 16 5 4 -4 -14 -28 -41 -51 -47 -42 -49 -45
-43 -87 4 -24 9 -55 13 -70 8 -33 -30 -73 -79 -82 -45 -8 -77 -33 -77 -58 0
-12 12 -37 26 -55 l26 -35 -26 -27 c-34 -36 -33 -48 8 -72 32 -19 33 -22 29
-67 -2 -26 -6 -58 -9 -71 l-5 -23 -162 4 c-125 4 -172 9 -205 23 -32 13 -41
22 -37 35 3 11 -4 26 -20 41 -31 30 -31 34 5 76 41 47 40 93 -5 183 -19 38
-32 75 -29 83 3 8 -2 42 -10 75 -17 62 -13 92 9 92 10 0 12 -10 8 -35 -9 -54
15 -43 43 21 l25 56 -31 34 c-45 52 -44 69 12 138 21 28 42 63 45 78 3 15 12
33 19 39 8 6 14 20 14 30 0 15 7 19 31 19 26 0 30 3 24 17 -20 53 -26 114 -15
148 7 20 9 47 6 60 -3 13 -2 26 3 29 4 3 11 23 15 44 4 28 12 42 31 50 35 16
32 48 -10 101 -41 52 -43 69 -11 137 25 54 49 150 41 163 -9 16 33 142 55 166
12 13 35 29 51 35 16 7 29 18 29 25 0 13 -27 38 -65 61 -14 7 -16 17 -11 38 8
31 55 56 105 56 25 0 31 6 41 34 8 27 17 36 38 38 16 2 32 13 42 30 14 26 14
28 -10 44 -14 10 -45 39 -70 65 -36 38 -48 46 -62 38 -13 -7 -21 -4 -33 15
-21 32 -6 67 25 59 18 -5 20 0 20 35 0 22 7 72 15 110 8 38 17 100 21 138 4
39 14 80 24 94 10 14 32 54 49 90 17 35 45 78 61 95 39 40 99 166 107 222 3
23 12 48 19 54 8 6 14 20 14 30 0 23 11 29 127 68 157 54 253 59 359 20z
m2500 -680 c48 -17 73 -20 132 -15 54 4 81 2 101 -9 31 -16 61 -55 61 -81 0
-13 -8 -11 -45 11 -60 34 -74 28 -36 -15 80 -90 87 -161 25 -229 -19 -21 -34
-46 -34 -55 0 -23 -40 -116 -51 -116 -4 0 -11 -9 -14 -20 -4 -13 -15 -20 -30
-20 -28 0 -45 -26 -45 -70 0 -45 -24 -94 -78 -164 -59 -75 -75 -103 -68 -121
3 -9 -11 -23 -38 -39 -23 -14 -55 -43 -69 -65 -21 -32 -37 -43 -79 -56 -28 -8
-64 -15 -80 -15 -27 0 -32 -7 -29 -43 2 -10 -8 -21 -24 -27 -15 -6 -52 -28
-83 -50 -62 -45 -77 -48 -91 -21 -13 24 -50 34 -57 16 -3 -8 11 -35 31 -62
l36 -47 -7 -77 c-6 -72 -5 -77 15 -84 26 -8 41 1 41 24 0 10 9 21 20 24 29 7
26 -24 -6 -58 -23 -25 -30 -27 -72 -22 -47 5 -47 5 -84 -46 -21 -28 -38 -59
-38 -68 0 -9 -7 -23 -17 -30 -9 -8 -22 -29 -30 -47 -18 -43 -3 -66 39 -60 43
7 30 -13 -27 -42 -67 -33 -296 -266 -272 -276 12 -4 33 11 72 52 53 57 55 57
75 39 26 -23 26 -55 -1 -89 -26 -34 -48 -34 -41 -1 2 14 1 25 -2 25 -24 0 -50
-29 -80 -89 -45 -88 -75 -123 -138 -159 -36 -21 -64 -49 -94 -94 -41 -60 -42
-63 -21 -66 14 -3 29 5 42 22 23 28 35 25 35 -8 0 -13 -12 -28 -30 -38 -17 -9
-30 -23 -30 -31 0 -8 -29 -54 -65 -102 -36 -48 -65 -93 -65 -101 0 -8 -21 -27
-47 -43 -27 -17 -75 -62 -107 -101 -33 -39 -74 -78 -90 -87 -17 -8 -44 -28
-61 -44 -36 -34 -83 -54 -147 -63 -30 -5 -60 -17 -79 -34 l-32 -26 -21 25
c-15 18 -26 51 -35 110 -7 46 -21 113 -32 149 -28 89 -20 127 30 148 37 16 61
49 61 85 0 10 -12 39 -26 63 -44 75 -25 168 52 253 19 21 49 44 67 51 17 7 50
30 72 50 53 49 147 100 184 100 20 0 58 -21 120 -65 93 -67 111 -75 111 -51 0
27 -51 75 -146 137 -112 73 -142 108 -125 146 6 14 9 34 6 44 -5 13 3 31 23
54 17 18 33 48 37 67 4 18 22 47 41 65 19 18 34 38 34 46 0 8 8 18 17 21 32
13 -1 27 -35 15 -17 -6 -41 -9 -54 -7 -23 4 -22 5 5 16 16 7 27 19 27 31 0 24
19 39 61 47 59 12 69 21 69 67 0 24 11 65 25 95 14 30 25 67 25 83 0 24 16 46
78 108 101 102 163 133 278 139 46 3 84 8 84 12 0 4 -18 25 -40 48 -43 44 -44
60 -4 87 15 9 24 25 24 41 0 17 9 30 29 42 27 15 29 22 33 83 3 60 12 86 88
242 58 118 93 180 110 190 14 9 77 64 140 122 173 160 215 182 244 126 9 -16
23 -31 32 -35 19 -7 44 10 44 30 0 8 9 23 20 34 26 26 80 26 156 -1z m1223
-1570 c97 -43 179 -136 201 -230 10 -43 10 -61 -5 -120 -9 -39 -14 -77 -11
-86 4 -9 -7 -30 -29 -54 -19 -22 -35 -46 -35 -54 0 -19 -31 -35 -67 -35 -33 0
-53 -16 -53 -42 0 -10 -23 -33 -57 -55 -58 -38 -58 -39 -64 -98 -6 -64 -38
-139 -64 -148 -8 -4 -15 -2 -15 3 0 20 -22 9 -70 -37 -28 -26 -50 -55 -50 -64
0 -24 -20 -37 -78 -49 -62 -14 -81 -32 -57 -56 13 -14 14 -19 3 -25 -21 -14
-60 -10 -72 5 -10 13 -15 13 -45 0 -26 -11 -32 -19 -28 -34 4 -15 -7 -31 -45
-63 -58 -48 -82 -89 -74 -123 9 -34 31 -30 62 14 57 78 86 102 121 102 50 0
42 -22 -42 -110 -41 -43 -75 -83 -75 -89 0 -5 -42 -43 -92 -84 -51 -41 -104
-87 -117 -101 -21 -22 -22 -26 -7 -32 30 -12 17 -26 -18 -20 -32 6 -37 2 -114
-79 -44 -47 -84 -81 -87 -75 -3 5 -10 10 -15 10 -18 0 -78 -60 -90 -90 -11
-27 -10 -33 6 -51 16 -17 16 -22 4 -29 -8 -6 -36 -10 -62 -10 -40 0 -48 -3
-48 -19 0 -25 -25 -45 -49 -38 -29 7 -44 -8 -43 -42 0 -17 -5 -34 -13 -38 -7
-5 -27 -33 -42 -63 -20 -38 -41 -62 -69 -77 -74 -42 -88 -24 -20 24 49 34 88
93 62 93 -7 0 -19 -7 -27 -16 -22 -27 -86 -54 -127 -54 -44 0 -64 16 -56 46 6
23 -19 50 -36 39 -15 -9 -13 -27 10 -76 25 -57 25 -104 -1 -167 -20 -48 -23
-50 -67 -57 -45 -7 -100 -30 -152 -64 -16 -11 -43 -16 -75 -15 -69 3 -182 22
-207 35 -17 9 -51 72 -71 132 -9 25 -26 21 -37 -8 -19 -49 -50 -20 -50 46 0
48 18 79 45 79 8 0 32 37 55 83 23 45 58 101 76 124 19 23 34 50 34 61 0 18 9
21 66 27 58 7 69 5 94 -14 60 -43 93 -29 177 76 26 33 42 43 85 53 95 21 89
16 87 73 -2 29 1 72 5 97 8 41 7 44 -8 30 -15 -12 -19 -12 -26 0 -12 20 -3 30
26 30 44 0 132 77 195 172 65 97 109 128 177 128 54 0 62 13 62 100 0 55 5 86
19 113 10 21 17 45 15 55 -3 12 6 22 36 34 42 17 50 37 25 58 -16 13 -12 43 7
67 8 10 20 6 51 -17 58 -43 85 -38 55 9 -9 15 -9 23 1 35 31 37 61 11 61 -55
0 -30 20 -52 37 -41 7 5 5 26 -9 71 -24 78 -19 93 62 190 57 68 74 104 85 171
12 82 46 169 76 198 32 30 35 33 76 77 119 127 250 225 301 225 10 0 27 9 38
21 13 15 27 20 49 16 16 -2 41 0 55 4 36 11 118 1 169 -22z m-8703 -372 c4
-11 35 -13 133 -13 l128 1 79 -40 c70 -35 86 -49 137 -118 32 -42 84 -98 115
-123 31 -26 69 -65 84 -89 14 -23 36 -45 47 -48 26 -7 39 -36 20 -48 -11 -8
-9 -14 13 -32 14 -12 31 -40 37 -62 6 -22 24 -60 41 -85 16 -25 30 -56 30 -71
0 -34 19 -52 38 -37 11 10 17 8 28 -7 20 -27 17 -45 -6 -45 -24 0 -27 -18 -4
-27 10 -4 13 -13 9 -32 -3 -15 1 -44 10 -65 11 -27 16 -63 14 -120 -2 -58 2
-89 13 -111 14 -27 15 -33 1 -59 -8 -16 -19 -60 -24 -98 -10 -83 -22 -106 -94
-186 -43 -47 -58 -72 -62 -102 -3 -22 -12 -45 -19 -51 -22 -18 -17 -59 18
-134 45 -98 118 -147 132 -90 4 14 11 25 16 25 18 0 -2 -143 -26 -192 -28 -56
-29 -64 -8 -127 8 -27 14 -61 12 -76 -4 -38 -46 -68 -81 -60 -37 10 -34 23 8
41 30 12 35 19 35 47 0 39 -18 70 -27 47 -12 -29 -62 -70 -85 -70 -13 0 -45 7
-72 15 -62 19 -125 21 -153 7 -29 -16 -78 -15 -90 1 -10 12 -32 82 -53 163 -5
22 -29 70 -51 105 -53 82 -79 137 -79 172 0 30 -57 116 -77 117 -18 0 -16 -15
3 -30 27 -23 36 -48 23 -71 -11 -21 -11 -21 -29 7 -25 41 -56 67 -103 85 -37
15 -44 22 -59 69 -10 30 -16 56 -13 58 8 9 43 -28 55 -59 16 -38 30 -28 30 24
0 62 -17 114 -39 120 -15 3 -19 13 -18 42 1 29 -5 42 -23 57 -23 18 -25 28
-25 97 0 68 -4 84 -40 156 -39 77 -42 80 -73 77 -38 -3 -38 0 -11 44 17 27 18
37 8 55 -9 17 -8 30 1 59 9 29 9 49 0 94 -6 32 -9 69 -6 82 5 18 -1 34 -24 62
-17 22 -38 67 -49 107 -21 74 -46 105 -87 105 -28 0 -32 -24 -8 -58 19 -28 3
-29 -21 -2 -24 26 -25 83 -2 108 10 11 15 26 11 35 -7 19 93 196 148 261 35
41 127 106 151 106 4 0 10 -6 13 -13z m3832 -1067 c51 -18 96 -29 100 -26 3 4
0 11 -7 15 -7 5 -10 14 -7 20 15 24 37 8 66 -49 28 -56 51 -73 65 -50 24 39
90 -67 79 -127 -4 -23 -2 -33 6 -33 7 0 29 -13 49 -29 21 -16 49 -33 64 -36
15 -4 32 -16 38 -26 7 -15 21 -19 57 -19 60 0 88 -19 97 -67 8 -42 42 -113 91
-190 18 -29 45 -75 59 -103 31 -61 56 -73 124 -60 31 6 71 6 107 0 40 -7 62
-6 71 1 9 8 13 8 13 0 0 -6 15 -11 33 -11 49 0 92 -32 142 -109 40 -61 60 -80
159 -146 62 -41 121 -84 130 -94 28 -31 35 -82 19 -131 -14 -40 -14 -45 3 -57
10 -7 45 -13 80 -13 35 0 65 -4 68 -8 9 -16 -24 -50 -54 -57 -32 -7 -32 -12
-14 -132 5 -36 36 -63 72 -63 32 0 24 22 -16 39 -35 16 -42 31 -14 31 10 0 35
-16 56 -35 21 -19 48 -35 60 -35 32 0 42 -11 50 -51 4 -21 13 -42 21 -49 21
-18 18 -40 -5 -40 -15 0 -20 -7 -20 -26 0 -17 6 -28 20 -31 11 -3 20 -13 20
-22 0 -10 15 -24 33 -33 88 -42 185 -169 201 -263 4 -22 21 -66 37 -97 16 -32
35 -87 43 -123 7 -35 21 -76 30 -89 9 -14 16 -36 16 -49 0 -37 38 -63 141 -96
63 -21 105 -41 125 -60 16 -16 38 -30 49 -32 12 -3 21 -14 23 -29 2 -13 22
-44 43 -69 47 -53 54 -76 40 -127 -6 -22 -11 -65 -11 -96 0 -49 -3 -60 -23
-73 -13 -8 -46 -16 -73 -16 -80 -2 -104 -8 -104 -29 0 -13 -5 -17 -15 -14 -8
3 -26 -4 -41 -15 -21 -16 -41 -21 -90 -21 -68 0 -83 -9 -56 -32 38 -34 62 -40
86 -24 17 11 26 12 34 4 14 -14 -3 -38 -27 -38 -9 0 -22 -13 -28 -31 -7 -17
-20 -33 -30 -35 -10 -3 -31 -25 -47 -50 -18 -28 -35 -44 -48 -44 -86 0 -174
-73 -227 -185 -18 -39 -36 -77 -40 -85 -11 -21 -49 -28 -95 -18 -32 7 -41 6
-49 -7 -5 -10 -47 -58 -94 -108 -86 -94 -133 -170 -133 -219 0 -46 22 -32 70
44 58 92 132 173 170 187 39 13 39 -1 3 -54 -97 -142 -191 -300 -182 -306 7
-4 1 -24 -16 -58 -21 -39 -26 -60 -22 -86 8 -49 -10 -44 -33 10 -11 25 -22 45
-26 45 -17 0 -72 -42 -93 -71 l-24 -32 32 6 c19 4 31 2 31 -4 0 -11 -60 -69
-71 -69 -3 0 -9 -21 -13 -46 -4 -31 -23 -71 -59 -127 -29 -45 -56 -90 -60
-100 -4 -10 -11 -15 -17 -12 -22 14 -8 61 41 132 28 41 48 77 45 80 -11 11
-36 -8 -61 -47 -23 -36 -29 -40 -66 -40 -22 0 -49 5 -59 10 -22 12 -38 -6 -21
-23 21 -21 11 -36 -41 -55 -69 -26 -71 -48 -5 -79 26 -13 47 -27 47 -32 0 -5
-23 -28 -51 -51 -30 -26 -61 -65 -79 -99 -33 -65 -57 -89 -125 -125 -27 -14
-75 -44 -106 -67 -49 -36 -65 -42 -134 -50 -84 -9 -88 -11 -155 -79 -67 -67
-145 -119 -169 -113 -12 3 -39 -2 -62 -11 -26 -10 -53 -14 -71 -11 -22 5 -47
-3 -113 -39 -111 -60 -129 -60 -188 5 -42 46 -50 51 -77 45 -26 -5 -35 -1 -59
26 -25 28 -36 32 -92 36 -35 3 -73 11 -84 18 -11 7 -45 20 -76 29 -61 17 -85
37 -91 74 -2 16 -18 32 -50 50 -45 25 -47 25 -66 8 -11 -10 -31 -17 -44 -15
-24 3 -27 15 -13 73 5 23 1 37 -15 58 -25 32 -61 35 -130 11 -61 -21 -99 -12
-172 45 -87 66 -101 72 -187 82 -58 7 -84 15 -115 37 -54 39 -149 86 -222 111
-70 23 -181 84 -219 119 -23 21 -33 24 -70 18 -40 -5 -46 -3 -65 24 -12 16
-51 52 -87 79 -36 27 -76 65 -89 85 -18 27 -32 36 -52 36 -65 0 -145 64 -229
183 -31 43 -66 82 -78 87 -15 6 -25 20 -29 45 -4 20 -22 53 -40 73 -35 40 -96
176 -115 257 -24 102 -65 221 -83 241 -25 28 -23 36 12 59 36 24 39 51 8 61
-54 16 -60 32 -53 125 l7 86 -49 79 c-68 110 -86 163 -86 251 0 40 5 79 11 86
16 18 27 117 14 117 -6 0 -12 -10 -14 -22 -6 -41 -20 -24 -48 57 -15 44 -42
120 -59 169 -52 146 -58 273 -17 355 7 14 16 41 20 59 3 19 17 47 31 64 28 33
32 69 10 88 -21 17 -9 30 28 30 83 0 157 44 177 105 8 25 8 39 0 56 -9 17 -9
27 1 45 16 30 27 30 63 -2 26 -23 28 -27 13 -36 -29 -16 -19 -33 45 -79 79
-57 118 -110 118 -160 0 -32 5 -41 28 -53 16 -8 41 -31 56 -50 15 -20 31 -36
37 -36 5 0 8 19 7 43 l-3 42 55 0 c50 0 55 -2 58 -24 3 -20 1 -23 -19 -18 -30
8 -49 -9 -49 -44 0 -22 6 -32 25 -39 32 -12 73 4 129 48 21 18 54 34 73 38 31
6 39 3 70 -30 21 -21 45 -36 59 -36 33 0 31 26 -4 44 -37 19 -59 45 -46 54 6
4 20 27 33 52 36 70 78 118 111 125 18 4 45 25 71 56 33 40 47 49 68 47 23 -3
26 -8 29 -43 5 -64 30 -69 130 -29 38 15 74 23 88 20 30 -8 40 10 18 35 -11
12 -30 19 -53 19 -116 1 -116 63 0 90 66 15 79 30 79 92 0 74 23 92 112 86 65
-5 70 -4 80 17 10 22 11 21 58 -26 64 -64 168 -96 134 -41 -6 9 -25 21 -42 27
-39 11 -42 35 -6 35 16 0 54 -21 96 -51 38 -28 76 -48 84 -45 23 9 16 26 -12
26 -14 0 -23 4 -19 10 3 6 14 10 23 10 10 0 37 27 61 60 46 64 70 83 114 94
41 10 109 -23 136 -68 17 -26 30 -36 48 -36 l26 0 -6 93 c-3 52 -12 109 -21
130 -12 26 -20 90 -26 200 -5 89 -12 179 -16 199 -9 54 -1 75 65 174 32 49 68
108 79 130 27 54 69 88 132 109 55 18 59 29 40 94 -12 43 -2 62 68 128 44 42
54 56 49 75 -8 29 1 44 33 57 37 16 104 6 208 -29z m5295 -983 c79 -6 109 -16
177 -61 42 -28 102 -88 125 -127 33 -54 66 -98 77 -102 7 -2 9 -8 5 -13 -4 -4
-17 -3 -27 4 -33 20 -45 14 -96 -49 -26 -33 -59 -68 -72 -78 -21 -15 -23 -21
-13 -39 7 -14 8 -29 2 -45 -14 -36 -29 -42 -52 -21 -15 14 -24 16 -37 8 -26
-17 -25 -39 3 -54 32 -17 32 -29 0 -22 -40 7 -58 -4 -45 -28 7 -14 8 -20 0
-20 -6 0 -13 14 -17 30 -6 32 -35 56 -54 45 -6 -4 -7 -20 -4 -36 8 -34 -4 -37
-58 -14 -58 24 -84 20 -92 -14 -8 -37 -28 -54 -106 -94 -74 -38 -86 -57 -36
-57 51 0 70 -9 56 -26 -8 -10 -34 -14 -83 -14 -82 0 -120 -16 -92 -39 9 -8 16
-19 16 -25 0 -20 -39 -56 -62 -56 -18 0 -19 4 -14 34 4 20 2 37 -3 41 -14 8
-83 -29 -98 -53 -8 -14 -19 -18 -36 -15 -31 6 -51 -24 -41 -62 4 -18 1 -30
-10 -38 -8 -7 -17 -23 -18 -37 -3 -22 1 -25 40 -28 24 -1 50 2 57 8 7 6 24 9
37 6 12 -3 74 -7 136 -10 95 -5 112 -4 112 9 0 22 11 18 48 -16 43 -40 41 -51
-8 -43 -28 5 -47 2 -64 -10 -14 -9 -35 -16 -46 -16 -11 0 -23 -7 -26 -15 -4
-8 -11 -15 -16 -15 -6 0 -8 6 -5 13 11 30 -8 39 -48 23 -26 -11 -42 -13 -49
-6 -5 5 -34 10 -63 10 -42 0 -54 4 -63 20 -6 11 -18 20 -28 20 -9 0 -23 -9
-30 -20 -16 -27 -32 -25 -59 7 -29 34 -29 39 7 80 29 33 38 53 22 53 -4 0 -55
-49 -112 -110 -58 -60 -110 -110 -117 -110 -39 0 -118 -25 -141 -45 -35 -30
-23 -41 33 -28 35 8 45 7 45 -3 0 -13 -39 -28 -103 -40 -30 -5 -41 -3 -51 11
-17 24 -41 14 -65 -26 -13 -21 -34 -37 -62 -47 -25 -8 -61 -33 -88 -61 -44
-45 -114 -81 -129 -66 -4 3 8 19 27 34 23 19 32 33 28 45 -8 19 -23 20 -83 5
-41 -11 -47 -17 -72 -67 -29 -59 -45 -70 -50 -34 l-3 22 -51 -27 c-27 -15 -54
-38 -59 -51 -7 -19 -12 -21 -28 -12 -13 7 -28 7 -46 0 -14 -5 -40 -10 -57 -10
-17 0 -66 -18 -110 -40 -55 -27 -93 -40 -122 -40 -23 0 -59 -10 -84 -22 -39
-21 -44 -22 -69 -8 -44 25 -68 67 -67 115 1 59 32 104 99 145 104 64 105 66
105 124 0 48 12 76 32 76 5 0 6 -15 3 -34 -10 -52 30 -61 53 -11 25 54 107
147 170 191 37 26 79 58 94 72 l28 25 93 -12 c109 -14 127 -10 127 31 0 18 9
38 26 53 37 34 111 68 135 62 32 -8 45 1 83 53 71 99 307 177 408 135 12 -5
17 -1 20 17 2 14 9 22 18 19 56 -14 56 -15 83 46 16 37 24 68 20 86 -6 30 7
35 31 11 15 -14 16 -14 16 3 0 10 7 27 15 37 8 11 12 29 9 43 -5 20 -2 23 20
23 14 0 26 5 26 12 0 16 51 68 67 68 7 0 31 28 52 63 28 43 65 81 121 125 79
62 82 63 116 52 44 -15 64 -7 64 24 0 30 36 54 94 62 37 6 46 11 62 43 18 35
18 35 22 10 3 -25 7 -26 75 -32z m344 -419 c24 -23 31 -48 12 -48 -19 0 -2
-54 28 -88 15 -18 33 -32 40 -32 24 0 22 -17 -6 -38 -25 -18 -32 -19 -62 -9
-71 25 -74 30 -59 76 11 33 11 52 2 92 -7 28 -12 55 -12 60 0 17 33 9 57 -13z
m-747 -847 c138 -2 164 -9 168 -45 5 -44 -13 -53 -41 -20 -24 27 -27 28 -110
25 -50 -1 -88 2 -91 8 -4 6 -15 7 -28 2 -19 -7 -87 0 -146 14 -34 8 -15 26 21
20 18 -3 46 -1 62 3 17 5 37 6 45 2 8 -5 62 -8 120 -9z"/>
<path d="M4570 4180 c-12 -22 -5 -43 13 -37 11 3 47 -63 47 -87 0 -6 -14 -17
-31 -25 -30 -13 -33 -12 -49 9 -17 23 -19 23 -44 7 -25 -17 -29 -26 -40 -97
-12 -73 -81 -146 -115 -122 -34 25 -44 25 -63 1 -35 -44 -49 -80 -64 -157 -24
-126 -30 -139 -78 -160 -77 -34 -128 -122 -71 -122 18 0 28 -7 35 -26 14 -36
13 -36 -20 -29 -28 6 -30 5 -30 -22 0 -15 11 -59 25 -98 l24 -70 63 -5 c59 -5
63 -7 63 -30 0 -17 -6 -26 -20 -28 -43 -9 -65 -33 -65 -73 0 -48 -13 -56 -48
-29 -24 20 -27 20 -30 5 -8 -35 9 -82 47 -132 22 -28 44 -61 50 -72 10 -17 15
-19 30 -9 23 14 86 -1 86 -21 0 -16 -71 -25 -80 -10 -23 36 -35 -43 -15 -96 9
-25 14 -27 50 -21 22 3 58 9 80 12 49 7 69 -7 100 -74 15 -30 23 -71 25 -119
5 -112 50 -169 98 -125 21 20 83 54 160 88 52 23 85 65 93 122 8 59 31 109 88
190 29 42 46 78 51 109 15 98 32 112 60 47 11 -28 19 -35 37 -32 17 2 24 12
30 42 5 25 27 60 59 97 71 83 51 121 -33 63 -40 -28 -68 -26 -68 5 0 15 8 20
33 23 31 3 33 7 58 82 15 43 32 82 39 86 7 5 35 8 61 8 79 1 128 19 147 54 37
69 53 78 144 78 91 0 128 15 128 51 0 32 -44 69 -83 69 -27 0 -39 6 -53 28 -9
15 -25 32 -33 39 -15 10 -14 14 2 41 24 43 21 57 -17 80 -27 16 -34 27 -39 62
-7 52 -15 60 -33 36 -22 -30 -17 -63 17 -123 21 -37 30 -63 26 -80 -3 -15 0
-34 6 -44 14 -23 -4 -45 -43 -54 -25 -5 -36 0 -77 40 -81 78 -197 181 -223
198 -40 27 -69 22 -77 -13 -6 -35 -23 -50 -23 -23 -1 28 -40 68 -93 92 -56 27
-181 173 -172 201 7 22 -97 214 -117 218 -9 2 -22 -6 -28 -18z"/>
<path d="M3577 3733 c-4 -3 -7 -14 -7 -23 0 -13 6 -16 25 -13 19 4 25 0 30
-20 4 -14 15 -33 26 -43 10 -9 19 -25 19 -35 0 -32 -23 -69 -42 -69 -19 0 -24
15 -8 25 23 14 9 51 -31 79 -34 24 -46 27 -68 20 -38 -14 -38 -40 1 -63 54
-32 65 -49 72 -109 10 -84 16 -112 27 -112 15 0 50 80 44 101 -4 13 -2 19 9
19 16 0 21 24 17 86 -1 17 5 48 13 69 9 21 16 50 16 66 l0 29 -68 0 c-38 0
-72 -3 -75 -7z"/>
<path d="M2877 3405 c-31 -16 -66 -54 -66 -70 0 -5 16 -21 35 -35 20 -14 43
-32 52 -41 35 -32 81 -59 102 -59 19 0 21 4 16 28 -4 15 -13 32 -20 37 -23 18
-50 79 -50 115 -1 41 -24 49 -69 25z"/>
<path d="M5936 3063 c-10 -10 -7 -59 5 -90 17 -44 90 -133 109 -133 20 0 70
54 70 75 0 19 -56 77 -110 112 -63 42 -66 43 -74 36z"/>
</g>
</svg>
